<svg width="1000" height="442" viewBox="0 0 1000 442" fill="none" xmlns="http://www.w3.org/2000/svg">
<mask id="mask0_472_25009" style="mask-type:alpha" maskUnits="userSpaceOnUse" x="0" y="0" width="1000" height="442">
<rect x="0.5" y="0.5" width="999" height="441" fill="url(#paint0_linear_472_25009)" stroke="url(#paint1_linear_472_25009)"/>
</mask>
<g mask="url(#mask0_472_25009)">
<path d="M7.30566 456.631C194.577 364.97 258.483 263.886 281.644 187.201C307.489 101.617 294.16 8.07722 322.06 2.26834C339.925 -1.45259 361.907 33.4761 402.89 110.044C527.171 342.226 529.985 403.885 582.935 419.888C657.111 442.323 702.837 336.78 816.854 339.055C900.595 340.73 968.359 399.494 1014.03 451.73" stroke="#F6F6F6" stroke-opacity="0.7" stroke-width="0.25" stroke-miterlimit="10"/>
<path d="M2.80688 447.418C184.806 357.731 252.382 259.474 277.379 187.604C305.313 107.287 292.121 18.5797 319.73 14.3843C337.481 11.685 359.05 46.0163 398.637 119.96C518.946 344.642 522.678 407.069 575.221 422.282C649.826 443.58 693.559 330.403 808.785 328.862C811.297 328.829 813.77 328.829 816.246 328.896C898 331.171 966.73 389.963 1013.38 441.877" stroke="#F6F6F6" stroke-opacity="0.7" stroke-width="0.25" stroke-miterlimit="10"/>
<path d="M-1.67761 438.203C175.034 350.497 246.229 255.235 273.126 188.01C303.106 113.078 290.101 29.0908 317.412 26.5032C335.053 24.8284 356.212 58.5651 394.393 129.882C510.704 347.053 515.333 410.448 567.526 424.673C642.494 445.106 684.323 323.968 800.736 318.664C803.29 318.547 805.835 318.43 808.381 318.444C891.486 318.901 963.789 378.908 1012.74 432.02" stroke="#F6F6F6" stroke-opacity="0.7" stroke-width="0.25" stroke-miterlimit="10"/>
<path d="M-6.16675 428.989C165.283 343.24 239.984 251.202 268.872 188.418C300.814 118.994 288.09 39.6122 315.089 38.6268C332.63 37.9848 353.353 71.113 390.146 139.804C502.475 349.487 508.019 413.717 559.83 427.066C635.197 446.483 675.1 317.487 792.684 308.468C795.294 308.267 797.902 308.074 800.5 307.99C884.951 305.294 960.832 367.852 1012.09 422.158" stroke="#F6F6F6" stroke-opacity="0.7" stroke-width="0.25" stroke-miterlimit="10"/>
<path d="M-10.6606 419.774C155.516 336.007 233.608 247.383 264.61 188.825C298.385 125.028 286.087 50.1435 312.764 50.7493C330.207 51.1428 350.501 83.6625 385.898 149.726C494.241 351.91 500.703 416.977 552.128 429.454C627.917 447.844 665.883 310.957 784.629 298.259C787.295 297.98 789.963 297.701 792.64 297.528C878.431 292.386 957.891 356.789 1011.46 412.301" stroke="#F6F6F6" stroke-opacity="0.7" stroke-width="0.25" stroke-miterlimit="10"/>
<path d="M-15.1495 410.56C145.757 328.772 227.076 243.797 260.361 189.236C295.778 131.175 284.088 60.6842 310.449 62.8699C327.801 64.3103 347.656 96.2103 381.658 159.65C486.02 354.333 493.403 420.227 544.438 431.847C620.643 449.196 656.68 304.384 776.584 288.071C779.308 287.7 782.033 287.323 784.779 287.083C871.907 279.518 954.962 345.741 1010.82 402.454" stroke="#F6F6F6" stroke-opacity="0.7" stroke-width="0.25" stroke-miterlimit="10"/>
<path d="M-19.6339 401.345C135.997 321.528 220.334 240.438 256.102 189.643C292.901 137.383 282.107 71.2378 308.126 74.9923C325.39 77.4822 344.804 108.768 377.408 169.57C477.786 356.752 486.099 423.467 536.738 434.236C613.375 450.535 647.469 297.77 768.529 277.873C771.321 277.416 774.095 276.947 776.903 276.631C865.363 266.66 952.01 334.692 1010.17 392.597" stroke="#F6F6F6" stroke-opacity="0.7" stroke-width="0.25" stroke-miterlimit="10"/>
<path d="M-24.1329 392.13C126.225 314.287 205.04 229.113 251.838 190.05C280.182 137.274 280.112 81.8058 305.795 87.1122C322.974 90.6629 341.947 121.307 373.155 179.507C469.547 359.189 478.789 426.71 529.031 436.642C606.099 451.874 638.25 291.132 760.466 267.69C763.307 267.146 766.152 266.587 769.029 266.191C858.826 253.839 949.074 323.644 1009.53 382.754" stroke="#F6F6F6" stroke-opacity="0.7" stroke-width="0.25" stroke-miterlimit="10"/>
<path d="M-28.6218 382.916C116.466 307.046 197.411 224.142 247.583 190.458C276.285 142.368 278.127 92.388 303.476 99.2353C320.57 103.852 339.096 133.849 368.909 189.417C461.304 361.598 471.495 429.917 521.338 439.02C598.838 453.172 629.038 284.43 752.415 257.479C755.312 256.846 758.215 256.198 761.163 255.723C852.296 241.01 946.121 312.576 1008.89 372.884" stroke="#F6F6F6" stroke-opacity="0.7" stroke-width="0.25" stroke-miterlimit="10"/>
<path d="M-33.1156 373.702C106.7 299.806 189.774 219.176 243.321 190.866C272.38 147.46 276.137 102.982 301.151 111.356C318.159 117.048 336.244 146.399 364.658 199.338C453.083 364.03 464.199 433.125 513.637 441.407C591.578 454.468 619.813 277.709 744.359 247.277C747.313 246.557 750.277 245.823 753.292 245.268C845.762 228.207 943.173 301.517 1008.25 363.025" stroke="#F6F6F6" stroke-opacity="0.7" stroke-width="0.25" stroke-miterlimit="10"/>
<path d="M-37.6001 364.488C96.9449 292.565 182.147 214.207 239.069 191.276C268.484 152.557 274.151 113.592 298.829 123.479C315.751 130.256 333.398 158.952 360.416 209.253C444.855 366.436 456.912 436.318 505.942 443.794C584.325 455.744 610.589 270.954 736.31 237.074C739.322 236.262 742.345 235.447 745.424 234.808C839.24 215.416 940.232 290.457 1007.61 353.163" stroke="#F6F6F6" stroke-opacity="0.7" stroke-width="0.25" stroke-miterlimit="10"/>
<path d="M-42.0891 355.271C87.1774 285.327 174.523 209.239 234.817 191.695C264.59 157.663 272.16 124.219 296.507 135.614C313.336 143.485 330.548 171.511 356.167 219.196C436.623 368.879 449.62 439.526 498.249 446.203C577.077 457.031 601.354 264.205 728.259 226.898C731.33 225.996 734.4 225.094 737.557 224.385C832.719 202.674 937.29 279.429 1006.97 343.335" stroke="#F6F6F6" stroke-opacity="0.7" stroke-width="0.25" stroke-miterlimit="10"/>
<path d="M-46.5831 346.056C77.4132 278.086 166.877 204.27 230.555 192.091C260.685 162.745 270.15 134.837 294.184 147.722C310.916 156.694 327.695 184.049 351.919 229.108C428.403 371.29 442.332 442.694 490.545 448.584C569.82 458.267 592.098 257.387 720.204 216.689C723.327 215.695 726.47 214.713 729.694 213.912C826.207 189.906 934.351 268.344 1006.34 333.461" stroke="#F6F6F6" stroke-opacity="0.7" stroke-width="0.25" stroke-miterlimit="10"/>
<path d="M-51.0675 336.842C67.6476 270.845 159.241 199.304 226.296 192.504C256.781 167.845 268.136 145.472 291.86 159.845C308.492 169.922 324.843 196.597 347.671 239.028C420.161 373.713 435.042 445.87 482.845 450.976C562.572 459.501 582.835 250.554 712.146 206.492C715.328 205.406 718.533 204.34 721.816 203.458C819.682 177.152 931.396 257.298 1005.7 323.605" stroke="#F6F6F6" stroke-opacity="0.7" stroke-width="0.25" stroke-miterlimit="10"/>
<path d="M-55.5614 327.627C57.8863 263.604 151.613 194.336 222.042 192.909C252.884 172.937 266.121 156.11 289.541 171.974C306.063 183.159 321.997 209.149 343.415 248.957C411.921 376.142 427.746 449.028 475.138 453.371C555.315 460.721 573.554 243.738 704.085 196.298C707.323 195.123 710.589 193.975 713.936 193.01C813.167 164.42 928.443 246.25 1005.04 313.754" stroke="#F6F6F6" stroke-opacity="0.7" stroke-width="0.25" stroke-miterlimit="10"/>
<path d="M-60.0554 318.413C48.1193 256.364 143.976 189.367 217.78 193.317C248.982 178.032 264.089 166.754 287.216 184.089C303.624 196.388 319.141 221.695 339.178 258.876C403.698 378.557 420.466 452.171 467.45 455.758C548.077 461.913 564.278 236.869 696.04 186.11C699.334 184.843 702.661 183.614 706.089 182.568C806.671 151.689 925.506 235.188 1004.4 303.881" stroke="#F6F6F6" stroke-opacity="0.7" stroke-width="0.25" stroke-miterlimit="10"/>
<path d="M-64.5447 309.199C38.3599 249.125 136.343 184.41 213.525 193.725C245.068 183.117 262.054 177.403 284.896 196.212C301.181 209.624 316.293 234.242 334.931 268.788C395.468 380.968 413.18 455.3 459.754 458.136C540.83 463.077 554.982 229.985 687.989 175.888C691.339 174.525 694.728 173.219 698.208 172.088C800.175 138.971 922.572 224.134 1003.76 294.036" stroke="#F6F6F6" stroke-opacity="0.7" stroke-width="0.25" stroke-miterlimit="10"/>
<path d="M-69.0339 299.973C28.5977 241.873 128.711 179.422 209.268 194.124C241.182 188.209 260.01 188.039 282.57 208.321C298.732 222.836 313.442 246.778 330.682 278.709C387.236 383.386 405.89 458.43 452.055 460.529C533.583 464.247 545.675 223.11 679.938 165.708C683.341 164.25 686.794 162.866 690.339 161.652C793.687 126.265 919.621 213.083 1003.12 284.194" stroke="#F6F6F6" stroke-opacity="0.7" stroke-width="0.25" stroke-miterlimit="10"/>
<path d="M-73.5277 290.761C18.8282 234.654 120.013 209.512 205.008 194.542C236.814 188.94 257.956 198.698 280.245 220.455C296.276 236.086 310.59 259.339 326.434 288.643C379.001 385.825 398.597 461.561 444.353 462.931C526.325 465.385 536.349 216.209 671.88 155.502C675.335 153.955 678.858 152.49 682.465 151.192C787.195 113.555 916.662 202.023 1002.48 274.323" stroke="#F6F6F6" stroke-opacity="0.7" stroke-width="0.25" stroke-miterlimit="10"/>
<path d="M-78.017 281.55C9.0744 227.397 111.518 177.353 200.754 194.944C232.944 201.292 255.897 209.34 277.924 232.572C293.819 249.321 307.739 271.881 322.187 298.561C370.774 388.243 391.305 464.665 436.657 465.316C519.07 466.499 527.017 209.295 663.826 145.3C667.34 143.658 670.924 142.123 674.598 140.736C780.793 101.067 913.728 190.967 1001.85 264.467" stroke="#F6F6F6" stroke-opacity="0.7" stroke-width="0.25" stroke-miterlimit="10"/>
<path d="M-82.5109 272.338C-0.698003 220.159 104.571 168.431 196.494 195.354C229.1 204.906 253.829 219.988 275.599 244.695C291.351 262.56 304.887 284.433 317.936 308.484C362.54 390.668 384.009 467.964 428.956 467.71C511.807 467.241 517.571 202.182 655.77 135.105C659.334 133.363 662.985 131.756 666.723 130.284C774.281 88.2709 910.78 179.909 1001.19 254.607" stroke="#F6F6F6" stroke-opacity="0.7" stroke-width="0.25" stroke-miterlimit="10"/>
<path d="M-87 263.127C-10.4601 212.923 98.1725 159.566 192.237 195.768C334.039 250.35 346.308 471.387 421.262 470.103C506.707 468.64 508.454 181.085 658.857 119.833C767.771 75.4782 907.849 168.856 1000.55 244.757" stroke="#F6F6F6" stroke-opacity="0.7" stroke-width="0.25" stroke-miterlimit="10"/>
</g>
<defs>
<linearGradient id="paint0_linear_472_25009" x1="500" y1="0" x2="500" y2="442" gradientUnits="userSpaceOnUse">
<stop stop-color="#FE8300"/>
<stop offset="1" stop-color="#ED3400"/>
</linearGradient>
<linearGradient id="paint1_linear_472_25009" x1="500" y1="0" x2="500" y2="442" gradientUnits="userSpaceOnUse">
<stop stop-color="#F5F5F5"/>
<stop offset="1" stop-color="#CED4E0"/>
</linearGradient>
</defs>
</svg>
